<?xml version="1.0" encoding="utf-8"?><svg xmlns="http://www.w3.org/2000/svg" xmlns:xlink="http://www.w3.org/1999/xlink" width="1844" height="1935" preserveAspectRatio="xMidYMid" viewBox="0 0 1844 1935" style="z-index:1;margin-right:-1.98px;display:block;background-repeat-y:initial;background-repeat-x:initial;background-color:rgb(241, 242, 243);animation-play-state:paused" ><g transform="translate(922,967.5) scale(1,1) translate(-922,-967.5)" style="transform:matrix(1, 0, 0, 1, 0, 0);animation-play-state:paused" ><defs style="animation-play-state:paused" ><path id="path-twgp24takm-1" d="M-35 -35L35 -35L35 35L-35 35Z" fill="none" stroke="inherit" stroke-width="13.61111111111111" transform="scale(0.36000000000000004)" style="transform:matrix(0.36, 0, 0, 0.36, 0, 0);animation-play-state:paused" ></path>

  
<path id="path-twgp24takm-2" d="M0 -37A37 37 0 0 1 0 37A37 37 0 0 1 0 -37" fill="none" stroke="inherit" stroke-width="13.61111111111111" transform="scale(0.36000000000000004)" style="transform:matrix(0.36, 0, 0, 0.36, 0, 0);animation-play-state:paused" ></path>

  
<path id="path-twgp24takm-3" d="M0 -34.641L40 34.641L-40 34.641Z" fill="none" stroke="inherit" stroke-width="13.61111111111111" transform="scale(0.36000000000000004)" style="transform:matrix(0.36, 0, 0, 0.36, 0, 0);animation-play-state:paused" ></path></defs>
<path id="path0" d="M 93.11630437238537 163.9622164927926
c 0 38.65795726425748 -9.45886188380768 11.103881341861191 -20.56274322566887 11.103881341861191
S 51.990817921047636 202.62017375705008 51.990817921047636 163.9622164927926
s 9.45886188380768 -11.103881341861191 20.56274322566887 -11.103881341861191
S 93.11630437238537 125.30425922853513 93.11630437238537 163.9622164927926
z" fill="none" stroke="none" style="animation-play-state:paused" ></path>


<use xlink:href="#path-twgp24takm-3" x="0" y="0" stroke="#ffb235" transform="translate(66.71990203857422 177.22659301757812)" style="animation-play-state:paused" ></use>
<path id="path1" d="M 127.51139887208046 1883.156150524093
c 0 36.860920283464544 -9.019161345954089 10.587711145250454 -19.606872491204545 10.587711145250454
S 88.29765388967138 1920.0170708075575 88.29765388967138 1883.156150524093
s 9.019161345954089 -10.587711145250454 19.606872491204545 -10.587711145250454
S 127.51139887208046 1846.2952302406284 127.51139887208046 1883.156150524093
z" fill="none" stroke="none" style="animation-play-state:paused" ></path>


<use xlink:href="#path-twgp24takm-1" x="0" y="0" stroke="#4ebaff" transform="translate(101.17024230957031 1896.64794921875)" style="animation-play-state:paused" ></use>
<path id="path2" d="M 220.8736793364794 258.98754653869366
c 0 47.69576315068124 -11.670239919847536 13.699846862429718 -25.37008678227725 13.699846862429718
S 170.13350577192492 306.6833096893749 170.13350577192492 258.98754653869366
s 11.670239919847536 -13.699846862429718 25.37008678227725 -13.699846862429718
S 220.8736793364794 211.29178338801242 220.8736793364794 258.98754653869366
z" fill="none" stroke="none" style="animation-play-state:paused" ></path>


<use xlink:href="#path-twgp24takm-1" x="0" y="0" stroke="#ffb616" transform="translate(175.57029724121094 284.4254455566406)" style="animation-play-state:paused" ></use>
<path id="path3" d="M 308.6836645424969 1049.2052346380362
c 0 35.44241500591499 -8.67208026740473 10.180268139996858 -18.85234840740159 10.180268139996858
S 270.97896772769377 1084.6476496439511 270.97896772769377 1049.2052346380362
s 8.67208026740473 -10.180268139996858 18.85234840740159 -10.180268139996858
S 308.6836645424969 1013.7628196321212 308.6836645424969 1049.2052346380362
z" fill="none" stroke="none" style="animation-play-state:paused" ></path>


<use xlink:href="#path-twgp24takm-3" x="0" y="0" stroke="#ffb616" transform="translate(307.3748779296875 1065.13720703125)" style="animation-play-state:paused" ></use>
<path id="path4" d="M 358.56258712411574 61.03861772085432
c 0 63.95070478947471 -15.647512874020407 18.368819460806566 -34.01633233482698 18.368819460806566
S 290.52992245446177 124.98932251032903 290.52992245446177 61.03861772085432
s 15.647512874020407 -18.368819460806566 34.01633233482698 -18.368819460806566
S 358.56258712411574 -2.9120870686203943 358.56258712411574 61.03861772085432
z" fill="none" stroke="none" style="animation-play-state:paused" ></path>


<use xlink:href="#path-twgp24takm-3" x="0" y="0" stroke="#ffb235" transform="translate(305.9472961425781 90.2552261352539)" style="animation-play-state:paused" ></use>
<path id="path5" d="M 434.09154153740093 304.04059369403444
c 0 43.75641874544639 -10.706357778141136 12.568333043904813 -23.274690822045947 12.568333043904813
S 387.542159893309 347.79701243948085 387.542159893309 304.04059369403444
s 10.706357778141136 -12.568333043904813 23.274690822045947 -12.568333043904813
S 434.09154153740093 260.28417494858803 434.09154153740093 304.04059369403444
z" fill="none" stroke="none" style="animation-play-state:paused" ></path>


<use xlink:href="#path-twgp24takm-2" x="0" y="0" stroke="#4ebaff" transform="translate(434.0594482421875 307.98040771484375)" style="animation-play-state:paused" ></use>
<path id="path6" d="M 538.1665933605019 1382.1774043281484
c 0 41.99735795127475 -10.275949285950205 12.063070900898067 -22.33902018684827 12.063070900898067
S 493.48855298680536 1424.1747622794232 493.48855298680536 1382.1774043281484
s 10.275949285950205 -12.063070900898067 22.33902018684827 -12.063070900898067
S 538.1665933605019 1340.1800463768736 538.1665933605019 1382.1774043281484
z" fill="none" stroke="none" style="animation-play-state:paused" ></path>


<use xlink:href="#path-twgp24takm-3" x="0" y="0" stroke="#ffb235" transform="translate(516.931884765625 1394.3221435546875)" style="animation-play-state:paused" ></use>
<path id="path7" d="M 577.4390931198608 275.2750183576755
c 0 39.76312831551764 -9.729276077201122 11.421324090627408 -21.15060016782853 11.421324090627408
S 535.1378927842037 315.0381466731931 535.1378927842037 275.2750183576755
s 9.729276077201122 -11.421324090627408 21.15060016782853 -11.421324090627408
S 577.4390931198608 235.51189004215786 577.4390931198608 275.2750183576755
z" fill="none" stroke="none" style="animation-play-state:paused" ></path>


<use xlink:href="#path-twgp24takm-1" x="0" y="0" stroke="#ffb616" transform="translate(540.3820190429688 296.35107421875)" style="animation-play-state:paused" ></use>
<path id="path8" d="M 686.1081454200599 1385.2276681047883
c 0 41.51245080459906 -10.157301792614662 11.923789060895475 -22.081090853510137 11.923789060895475
S 641.9459637130398 1426.7401189093873 641.9459637130398 1385.2276681047883
s 10.157301792614662 -11.923789060895475 22.081090853510137 -11.923789060895475
S 686.1081454200599 1343.7152173001894 686.1081454200599 1385.2276681047883
z" fill="none" stroke="none" style="animation-play-state:paused" ></path>


<use xlink:href="#path-twgp24takm-3" x="0" y="0" stroke="#4ebaff" transform="translate(670.1514282226562 1399.3782958984375)" style="animation-play-state:paused" ></use>
<path id="path9" d="M 756.736906843984 1720.3825386506046
c 0 36.929282647360374 -9.035888307332858 10.607347143390747 -19.643235450723605 10.607347143390747
S 717.4504359425367 1757.311821297965 717.4504359425367 1720.3825386506046
s 9.035888307332858 -10.607347143390747 19.643235450723605 -10.607347143390747
S 756.736906843984 1683.4532560032442 756.736906843984 1720.3825386506046
z" fill="none" stroke="none" style="animation-play-state:paused" ></path>


<use xlink:href="#path-twgp24takm-2" x="0" y="0" stroke="#4ebaff" transform="translate(756.5498046875 1728.3994140625)" style="animation-play-state:paused" ></use>
<path id="path10" d="M 832.718212048631 447.2624528629766
c 0 63.52849113016811 -15.544205276530494 18.247545324622756 -33.791750601153254 18.247545324622756
S 765.1347108463245 510.7909439931447 765.1347108463245 447.2624528629766
s 15.544205276530494 -18.247545324622756 33.791750601153254 -18.247545324622756
S 832.718212048631 383.7339617328085 832.718212048631 447.2624528629766
z" fill="none" stroke="none" style="animation-play-state:paused" ></path>


<use xlink:href="#path-twgp24takm-1" x="0" y="0" stroke="#ffb235" transform="translate(799.5960693359375 465.53021240234375)" style="animation-play-state:paused" ></use>
<path id="path11" d="M 872.7907750258892 1078.5957369936295
c 0 37.01287963945973 -9.056342890506105 10.631359045376733 -19.68770193588284 10.631359045376733
S 833.4153711541235 1115.6086166330892 833.4153711541235 1078.5957369936295
s 9.056342890506105 -10.631359045376733 19.68770193588284 -10.631359045376733
S 872.7907750258892 1041.5828573541698 872.7907750258892 1078.5957369936295
z" fill="none" stroke="none" style="animation-play-state:paused" ></path>


<use xlink:href="#path-twgp24takm-2" x="0" y="0" stroke="#ffb616" transform="translate(872.66552734375 1085.3331298828125)" style="animation-play-state:paused" ></use>
<path id="path12" d="M 921.8814846014881 1505.4542991611818
c 0 64.12492665582897 -15.690141628553897 18.418861911780663 -34.10900354033456 18.418861911780663
S 853.6634775208189 1569.5792258170109 853.6634775208189 1505.4542991611818
s 15.690141628553897 -18.418861911780663 34.10900354033456 -18.418861911780663
S 921.8814846014881 1441.3293725053527 921.8814846014881 1505.4542991611818
z" fill="none" stroke="none" style="animation-play-state:paused" ></path>


<use xlink:href="#path-twgp24takm-1" x="0" y="0" stroke="#ffb235" transform="translate(921.8678588867188 1508.593994140625)" style="animation-play-state:paused" ></use>
<path id="path13" d="M 1013.5063478042662 1775.783699869086
c 0 39.6275572268285 -9.696104427841014 11.382383458769889 -21.078487886610905 11.382383458769889
S 971.3493720310444 1815.4112570959144 971.3493720310444 1775.783699869086
s 9.696104427841014 -11.382383458769889 21.078487886610905 -11.382383458769889
S 1013.5063478042662 1736.1561426422575 1013.5063478042662 1775.783699869086
z" fill="none" stroke="none" style="animation-play-state:paused" ></path>


<use xlink:href="#path-twgp24takm-2" x="0" y="0" stroke="#4ebaff" transform="translate(1011.3112182617188 1795.3826904296875)" style="animation-play-state:paused" ></use>
<path id="path14" d="M 1112.182437084594 1782.5051909388735
c 0 61.15099464409243 -14.96247741291623 17.56464739777123 -32.52712481068746 17.56464739777123
S 1047.1281874632193 1843.656185582966 1047.1281874632193 1782.5051909388735
s 14.96247741291623 -17.56464739777123 32.52712481068746 -17.56464739777123
S 1112.182437084594 1721.354196294781 1112.182437084594 1782.5051909388735
z" fill="none" stroke="none" style="animation-play-state:paused" ></path>


<use xlink:href="#path-twgp24takm-2" x="0" y="0" stroke="#ffb235" transform="translate(1072.2578125 1802.34326171875)" style="animation-play-state:paused" ></use>
<path id="path15" d="M 1117.5622068044397 1359.7685826008812
c 0 19.365267223851937 -4.738310065410579 5.562363989829811 -10.30067405524039 5.562363989829811
S 1096.9608586939592 1379.1338498247333 1096.9608586939592 1359.7685826008812
s 4.738310065410579 -5.562363989829811 10.30067405524039 -5.562363989829811
S 1117.5622068044397 1340.4033153770292 1117.5622068044397 1359.7685826008812
z" fill="none" stroke="none" style="animation-play-state:paused" ></path>


<use xlink:href="#path-twgp24takm-1" x="0" y="0" stroke="#4ebaff" transform="translate(1103.330078125 1367.16552734375)" style="animation-play-state:paused" ></use>
<path id="path16" d="M 1258.9690713192822 952.6454137151275
c 0 40.53962372490194 -9.919269634816432 11.644360006088856 -21.56362964090529 11.644360006088856
S 1215.8418120374718 993.1850374400294 1215.8418120374718 952.6454137151275
s 9.919269634816432 -11.644360006088856 21.56362964090529 -11.644360006088856
S 1258.9690713192822 912.1057899902255 1258.9690713192822 952.6454137151275
z" fill="none" stroke="none" style="animation-play-state:paused" ></path>


<use xlink:href="#path-twgp24takm-3" x="0" y="0" stroke="#4ebaff" transform="translate(1224.6319580078125 971.9915771484375)" style="animation-play-state:paused" ></use>
<path id="path17" d="M 1291.7726041825467 1476.9785532961187
c 0 39.82844120198484 -9.745256889847353 11.4400841750382 -21.185341064885552 11.4400841750382
S 1249.4019220527757 1516.8069944981034 1249.4019220527757 1476.9785532961187
s 9.745256889847353 -11.4400841750382 21.185341064885552 -11.4400841750382
S 1291.7726041825467 1437.1501120941339 1291.7726041825467 1476.9785532961187
z" fill="none" stroke="none" style="animation-play-state:paused" ></path>


<use xlink:href="#path-twgp24takm-2" x="0" y="0" stroke="#4ebaff" transform="translate(1279.7574462890625 1493.0902099609375)" style="animation-play-state:paused" ></use>
<path id="path18" d="M 1345.6825913540679 513.5716156875421
c 0 25.80806788409749 -6.314740014194066 7.412955668836513 -13.727695683030579 7.412955668836513
S 1318.2271999880068 539.3796835716396 1318.2271999880068 513.5716156875421
s 6.314740014194066 -7.412955668836513 13.727695683030579 -7.412955668836513
S 1345.6825913540679 487.7635478034446 1345.6825913540679 513.5716156875421
z" fill="none" stroke="none" style="animation-play-state:paused" ></path>


<use xlink:href="#path-twgp24takm-2" x="0" y="0" stroke="#ffb235" transform="translate(1341.2659912109375 526.7587890625)" style="animation-play-state:paused" ></use>
<path id="path19" d="M 1444.5951962030301 1190.958278749476
c 0 48.23491946411857 -11.802161145475818 13.854710909906398 -25.656872055382216 13.854710909906398
S 1393.281452092266 1239.1931982135945 1393.281452092266 1190.958278749476
s 11.802161145475818 -13.854710909906398 25.656872055382216 -13.854710909906398
S 1444.5951962030301 1142.7233592853574 1444.5951962030301 1190.958278749476
z" fill="none" stroke="none" style="animation-play-state:paused" ></path>


<use xlink:href="#path-twgp24takm-1" x="0" y="0" stroke="#4ebaff" transform="translate(1423.3408203125 1205.8677978515625)" style="animation-play-state:paused" ></use>
<path id="path20" d="M 1486.8049625174087 937.5217876557892
c 0 36.879582167268815 -9.023727551565774 10.593071473577213 -19.616799025142985 10.593071473577213
S 1447.571364467123 974.4013698230581 1447.571364467123 937.5217876557892
s 9.023727551565774 -10.593071473577213 19.616799025142985 -10.593071473577213
S 1486.8049625174087 900.6422054885204 1486.8049625174087 937.5217876557892
z" fill="none" stroke="none" style="animation-play-state:paused" ></path>


<use xlink:href="#path-twgp24takm-2" x="0" y="0" stroke="#ffb235" transform="translate(1467.40576171875 948.1187744140625)" style="animation-play-state:paused" ></use>
<path id="path21" d="M 1572.1407985531268 1586.0167839019878
c 0 25.395326408112506 -6.213750078580719 7.294402266159975 -13.508152344740694 7.294402266159975
S 1545.1244938636455 1611.4121103101002 1545.1244938636455 1586.0167839019878
s 6.213750078580719 -7.294402266159975 13.508152344740694 -7.294402266159975
S 1572.1407985531268 1560.6214574938754 1572.1407985531268 1586.0167839019878
z" fill="none" stroke="none" style="animation-play-state:paused" ></path>


<use xlink:href="#path-twgp24takm-2" x="0" y="0" stroke="#ffb235" transform="translate(1567.1683349609375 1598.5560302734375)" style="animation-play-state:paused" ></use>
<path id="path22" d="M 1681.0618874863803 312.6846085451674
c 0 44.46825565370609 -10.880530638672765 12.772796836702812 -23.653327475375576 12.772796836702812
S 1633.7552325356291 357.1528641988735 1633.7552325356291 312.6846085451674
s 10.880530638672765 -12.772796836702812 23.653327475375576 -12.772796836702812
S 1681.0618874863803 268.2163528914613 1681.0618874863803 312.6846085451674
z" fill="none" stroke="none" style="animation-play-state:paused" ></path>


<use xlink:href="#path-twgp24takm-1" x="0" y="0" stroke="#4ebaff" transform="translate(1677.6417236328125 335.8681640625)" style="animation-play-state:paused" ></use>
<path id="path23" d="M 1732.903099080472 1125.1775592293257
c 0 39.612591926893764 -9.692442705516559 11.378084915171614 -21.070527620688175 11.378084915171614
S 1690.7620438390957 1164.7901511562195 1690.7620438390957 1125.1775592293257
s 9.692442705516559 -11.378084915171614 21.070527620688175 -11.378084915171614
S 1732.903099080472 1085.5649673024318 1732.903099080472 1125.1775592293257
z" fill="none" stroke="none" style="animation-play-state:paused" ></path>


<use xlink:href="#path-twgp24takm-2" x="0" y="0" stroke="#ffb616" transform="translate(1694.167724609375 1146.068603515625)" style="animation-play-state:paused" ></use>
<path id="path24" d="M 1817.1509687339114 1038.82047199237
c 0 46.98357308136349 -11.495980647567661 13.495281629753341 -24.991262277321002 13.495281629753341
S 1767.1684441792693 1085.8040450737335 1767.1684441792693 1038.82047199237
s 11.495980647567661 -13.495281629753341 24.991262277321002 -13.495281629753341
S 1817.1509687339114 991.8368989110064 1817.1509687339114 1038.82047199237
z" fill="none" stroke="none" style="animation-play-state:paused" ></path>


<use xlink:href="#path-twgp24takm-1" x="0" y="0" stroke="#ffb235" transform="translate(1796.9957275390625 1053.6058349609375)" style="animation-play-state:paused" ></use></g></svg>