<?xml version="1.0" encoding="utf-8"?><svg xmlns="http://www.w3.org/2000/svg" xmlns:xlink="http://www.w3.org/1999/xlink" width="2301" height="1935" preserveAspectRatio="xMidYMid" viewBox="0 0 2301 1935" style="z-index:1;margin-right:-1.98px;display:block;background-repeat-y:initial;background-repeat-x:initial;background-color:rgb(241, 242, 243);animation-play-state:paused" ><g transform="translate(1150.5,967.5) scale(1,1) translate(-1150.5,-967.5)" style="transform:matrix(1, 0, 0, 1, 0, 0);animation-play-state:paused" ><defs style="animation-play-state:paused" ><path id="path-8jgme0csrm7-1" d="M-35 -35L35 -35L35 35L-35 35Z" fill="none" stroke="inherit" stroke-width="13.61111111111111" transform="scale(0.36000000000000004)" style="transform:matrix(0.36, 0, 0, 0.36, 0, 0);animation-play-state:paused" ></path>

  
<path id="path-8jgme0csrm7-2" d="M0 -37A37 37 0 0 1 0 37A37 37 0 0 1 0 -37" fill="none" stroke="inherit" stroke-width="13.61111111111111" transform="scale(0.36000000000000004)" style="transform:matrix(0.36, 0, 0, 0.36, 0, 0);animation-play-state:paused" ></path>

  
<path id="path-8jgme0csrm7-3" d="M0 -34.641L40 34.641L-40 34.641Z" fill="none" stroke="inherit" stroke-width="13.61111111111111" transform="scale(0.36000000000000004)" style="transform:matrix(0.36, 0, 0, 0.36, 0, 0);animation-play-state:paused" ></path></defs>
<path id="path0" d="M 75.79734675499115 699.4186579172343
c 0 22.005924621078933 -5.384428364732079 6.3208506890333105 -11.70527905376539 6.3208506890333105
S 52.38678864746037 721.4245825383133 52.38678864746037 699.4186579172343
s 5.384428364732079 -6.3208506890333105 11.70527905376539 -6.3208506890333105
S 75.79734675499115 677.4127332961554 75.79734675499115 699.4186579172343
z" fill="none" stroke="none" style="animation-play-state:paused" ></path>


<use xlink:href="#path-8jgme0csrm7-1" x="0" y="0" stroke="#ffb616" transform="translate(67.89151000976562 707.3075561523438)" style="animation-play-state:paused" ></use>
<path id="path1" d="M 209.498134105239 1625.434438158269
c 0 49.926451860284004 -12.216046731771616 14.340576598166681 -26.556623329938297 14.340576598166681
S 156.38488744536238 1675.360890018553 156.38488744536238 1625.434438158269
s 12.216046731771616 -14.340576598166681 26.556623329938297 -14.340576598166681
S 209.498134105239 1575.5079862979849 209.498134105239 1625.434438158269
z" fill="none" stroke="none" style="animation-play-state:paused" ></path>


<use xlink:href="#path-8jgme0csrm7-1" x="0" y="0" stroke="#4ebaff" transform="translate(208.60110473632812 1643.322509765625)" style="animation-play-state:paused" ></use>
<path id="path2" d="M 268.7547499748668 920.1214593817097
c 0 45.96722068899485 -11.247298679222144 13.203350623434691 -24.450649302656835 13.203350623434691
S 219.85345136955314 966.0886800707045 219.85345136955314 920.1214593817097
s 11.247298679222144 -13.203350623434691 24.450649302656835 -13.203350623434691
S 268.7547499748668 874.1542386927148 268.7547499748668 920.1214593817097
z" fill="none" stroke="none" style="animation-play-state:paused" ></path>


<use xlink:href="#path-8jgme0csrm7-1" x="0" y="0" stroke="#ffb616" transform="translate(243.35086059570312 933.3807373046875)" style="animation-play-state:paused" ></use>
<path id="path3" d="M 373.5253529295487 1528.0461567881293
c 0 46.55625637757459 -11.391424432810803 13.372541725473553 -24.763966158284354 13.372541725473553
S 323.99742061298 1574.6024131657039 323.99742061298 1528.0461567881293
s 11.391424432810803 -13.372541725473553 24.763966158284354 -13.372541725473553
S 373.5253529295487 1481.4899004105548 373.5253529295487 1528.0461567881293
z" fill="none" stroke="none" style="animation-play-state:paused" ></path>


<use xlink:href="#path-8jgme0csrm7-1" x="0" y="0" stroke="#4ebaff" transform="translate(339.59039306640625 1545.6041259765625)" style="animation-play-state:paused" ></use>
<path id="path4" d="M 462.1547038543858 1906.03678849459
c 0 47.4592700958795 -11.612374597927962 13.63191800626326 -25.244292604191223 13.63191800626326
S 411.6661186460033 1953.4960585904694 411.6661186460033 1906.03678849459
s 11.612374597927962 -13.63191800626326 25.244292604191223 -13.63191800626326
S 462.1547038543858 1858.5775183987105 462.1547038543858 1906.03678849459
z" fill="none" stroke="none" style="animation-play-state:paused" ></path>


<use xlink:href="#path-8jgme0csrm7-2" x="0" y="0" stroke="#ffb616" transform="translate(460.5093078613281 1927.0047607421875)" style="animation-play-state:paused" ></use>
<path id="path5" d="M 548.2999722644008 1540.9905604498451
c 0 38.55026624843757 -9.432511954404937 11.072948816040581 -20.505460770445517 11.072948816040581
S 507.2890507235098 1579.5408266982827 507.2890507235098 1540.9905604498451
s 9.432511954404937 -11.072948816040581 20.505460770445517 -11.072948816040581
S 548.2999722644008 1502.4402942014076 548.2999722644008 1540.9905604498451
z" fill="none" stroke="none" style="animation-play-state:paused" ></path>


<use xlink:href="#path-8jgme0csrm7-3" x="0" y="0" stroke="#ffb235" transform="translate(548.2905883789062 1543.0013427734375)" style="animation-play-state:paused" ></use>
<path id="path6" d="M 603.4913498659395 1820.2447408802932
c 0 54.169334083368184 -13.254198765079447 15.559276811180224 -28.81347557625967 15.559276811180224
S 545.8643987134202 1874.4140749636613 545.8643987134202 1820.2447408802932
s 13.254198765079447 -15.559276811180224 28.81347557625967 -15.559276811180224
S 603.4913498659395 1766.075406796925 603.4913498659395 1820.2447408802932
z" fill="none" stroke="none" style="animation-play-state:paused" ></path>


<use xlink:href="#path-8jgme0csrm7-3" x="0" y="0" stroke="#4ebaff" transform="translate(599.1484375 1848.619140625)" style="animation-play-state:paused" ></use>
<path id="path7" d="M 764.6284699250278 1462.9689731693802
c 0 41.79765218167823 -10.227085108282969 12.005708605375663 -22.23279371365863 12.005708605375663
S 720.1628824977105 1504.7666253510583 720.1628824977105 1462.9689731693802
s 10.227085108282969 -12.005708605375663 22.23279371365863 -12.005708605375663
S 764.6284699250278 1421.171320987702 764.6284699250278 1462.9689731693802
z" fill="none" stroke="none" style="animation-play-state:paused" ></path>


<use xlink:href="#path-8jgme0csrm7-3" x="0" y="0" stroke="#4ebaff" transform="translate(762.0264282226562 1484.09375)" style="animation-play-state:paused" ></use>
<path id="path8" d="M 791.0006714528631 998.1008851817102
c 0 44.06612877578442 -10.78213789194725 12.657292307938079 -23.43943019988533 12.657292307938079
S 744.1218110530924 1042.1670139574946 744.1218110530924 998.1008851817102
s 10.78213789194725 -12.657292307938079 23.43943019988533 -12.657292307938079
S 791.0006714528631 954.0347564059257 791.0006714528631 998.1008851817102
z" fill="none" stroke="none" style="animation-play-state:paused" ></path>


<use xlink:href="#path-8jgme0csrm7-2" x="0" y="0" stroke="#4ebaff" transform="translate(779.1572875976562 1017.177001953125)" style="animation-play-state:paused" ></use>
<path id="path9" d="M 870.3752877463984 154.78574326241477
c 0 63.01343115186245 -15.418179962689745 18.09960256489666 -33.517782527586405 18.09960256489666
S 803.3397226912256 217.79917441427722 803.3397226912256 154.78574326241477
s 15.418179962689745 -18.09960256489666 33.517782527586405 -18.09960256489666
S 870.3752877463984 91.77231211055232 870.3752877463984 154.78574326241477
z" fill="none" stroke="none" style="animation-play-state:paused" ></path>


<use xlink:href="#path-8jgme0csrm7-3" x="0" y="0" stroke="#4ebaff" transform="translate(828.2926635742188 175.79307556152344)" style="animation-play-state:paused" ></use>
<path id="path10" d="M 1030.0350123835385 426.85261190059845
c 0 33.527910488907835 -8.203637672817873 9.630357268090549 -17.833994940908422 9.630357268090549
S 994.3670225017216 460.38052238950627 994.3670225017216 426.85261190059845
s 8.203637672817873 -9.630357268090549 17.833994940908422 -9.630357268090549
S 1030.0350123835385 393.3247014116906 1030.0350123835385 426.85261190059845
z" fill="none" stroke="none" style="animation-play-state:paused" ></path>


<use xlink:href="#path-8jgme0csrm7-1" x="0" y="0" stroke="#ffb235" transform="translate(1029.9376220703125 432.5550842285156)" style="animation-play-state:paused" ></use>
<path id="path11" d="M 1029.3151676036573 283.5474200761265
c 0 21.307920478633264 -5.213640117112393 6.120360137479767 -11.33400025459216 6.120360137479767
S 1006.6471670944729 304.8553405547598 1006.6471670944729 283.5474200761265
s 5.213640117112393 -6.120360137479767 11.33400025459216 -6.120360137479767
S 1029.3151676036573 262.23949959749325 1029.3151676036573 283.5474200761265
z" fill="none" stroke="none" style="animation-play-state:paused" ></path>


<use xlink:href="#path-8jgme0csrm7-2" x="0" y="0" stroke="#4ebaff" transform="translate(1028.8709716796875 291.5855712890625)" style="animation-play-state:paused" ></use>
<path id="path12" d="M 1182.2834979117104 346.0729916557619
c 0 56.07267286548211 -13.719909318149876 16.105980503915074 -29.82588982206495 16.105980503915074
S 1122.6317182675805 402.145664521244 1122.6317182675805 346.0729916557619
s 13.719909318149876 -16.105980503915074 29.82588982206495 -16.105980503915074
S 1182.2834979117104 290.0003187902798 1182.2834979117104 346.0729916557619
z" fill="none" stroke="none" style="animation-play-state:paused" ></path>


<use xlink:href="#path-8jgme0csrm7-2" x="0" y="0" stroke="#4ebaff" transform="translate(1182.2786865234375 347.75250244140625)" style="animation-play-state:paused" ></use>
<path id="path13" d="M 1251.0082128428066 1801.8393159516777
c 0 30.85773641340722 -7.550297207535809 8.863392374063777 -16.413689581599584 8.863392374063777
S 1218.1808336796075 1832.6970523650848 1218.1808336796075 1801.8393159516777
s 7.550297207535809 -8.863392374063777 16.413689581599584 -8.863392374063777
S 1251.0082128428066 1770.9815795382706 1251.0082128428066 1801.8393159516777
z" fill="none" stroke="none" style="animation-play-state:paused" ></path>


<use xlink:href="#path-8jgme0csrm7-1" x="0" y="0" stroke="#ffb616" transform="translate(1248.183349609375 1818.192138671875)" style="animation-play-state:paused" ></use>
<path id="path14" d="M 1331.9254502392157 465.8577840003214
c 0 55.09790594208146 -13.481402517743335 15.82599425995957 -29.307396777702905 15.82599425995957
S 1273.3106566838098 520.9556899424028 1273.3106566838098 465.8577840003214
s 13.481402517743335 -15.82599425995957 29.307396777702905 -15.82599425995957
S 1331.9254502392157 410.7598780582399 1331.9254502392157 465.8577840003214
z" fill="none" stroke="none" style="animation-play-state:paused" ></path>


<use xlink:href="#path-8jgme0csrm7-2" x="0" y="0" stroke="#ffb616" transform="translate(1325.6900634765625 495.2457275390625)" style="animation-play-state:paused" ></use>
<path id="path15" d="M 1447.8840386383772 1680.0786971076204
c 0 37.60305214540589 -9.200746801535482 10.800876680063393 -20.001623481598877 10.800876680063393
S 1407.8807916751794 1717.6817492530263 1407.8807916751794 1680.0786971076204
s 9.200746801535482 -10.800876680063393 20.001623481598877 -10.800876680063393
S 1447.8840386383772 1642.4756449622146 1447.8840386383772 1680.0786971076204
z" fill="none" stroke="none" style="animation-play-state:paused" ></path>


<use xlink:href="#path-8jgme0csrm7-1" x="0" y="0" stroke="#ffb616" transform="translate(1431.1107177734375 1691.6112060546875)" style="animation-play-state:paused" ></use>
<path id="path16" d="M 1485.1182844163673 404.1626191811125
c 0 31.365574502196786 -7.674555463303468 9.00926076126929 -16.68381622457276 9.00926076126929
S 1451.7506519672215 435.5281936833093 1451.7506519672215 404.1626191811125
s 7.674555463303468 -9.00926076126929 16.68381622457276 -9.00926076126929
S 1485.1182844163673 372.7970446789157 1485.1182844163673 404.1626191811125
z" fill="none" stroke="none" style="animation-play-state:paused" ></path>


<use xlink:href="#path-8jgme0csrm7-2" x="0" y="0" stroke="#ffb616" transform="translate(1452.156005859375 414.123779296875)" style="animation-play-state:paused" ></use>
<path id="path17" d="M 1612.5680630489696 1835.5507422926728
c 0 60.118800506068425 -14.70991927276142 17.268166102806887 -31.97808537556831 17.268166102806887
S 1548.611892297833 1895.6695427987413 1548.611892297833 1835.5507422926728
s 14.70991927276142 -17.268166102806887 31.97808537556831 -17.268166102806887
S 1612.5680630489696 1775.4319417866043 1612.5680630489696 1835.5507422926728
z" fill="none" stroke="none" style="animation-play-state:paused" ></path>


<use xlink:href="#path-8jgme0csrm7-2" x="0" y="0" stroke="#ffb616" transform="translate(1608.8179931640625 1865.946044921875)" style="animation-play-state:paused" ></use>
<path id="path18" d="M 1720.4922905855055 425.7227613539678
c 0 49.34198329767915 -12.073038466453408 14.172697330184436 -26.245735796637845 14.172697330184436
S 1668.00081899223 475.06474465164695 1668.00081899223 425.7227613539678
s 12.073038466453408 -14.172697330184436 26.245735796637845 -14.172697330184436
S 1720.4922905855055 376.3807780562887 1720.4922905855055 425.7227613539678
z" fill="none" stroke="none" style="animation-play-state:paused" ></path>


<use xlink:href="#path-8jgme0csrm7-3" x="0" y="0" stroke="#4ebaff" transform="translate(1719.0128173828125 446.62847900390625)" style="animation-play-state:paused" ></use>
<path id="path19" d="M 1800.882531952366 1854.1138215946248
c 0 35.77894867997591 -8.754423613185594 10.276932067652655 -19.03135568083825 10.276932067652655
S 1762.8198205906895 1889.8927702746007 1762.8198205906895 1854.1138215946248
s 8.754423613185594 -10.276932067652655 19.03135568083825 -10.276932067652655
S 1800.882531952366 1818.334872914649 1800.882531952366 1854.1138215946248
z" fill="none" stroke="none" style="animation-play-state:paused" ></path>


<use xlink:href="#path-8jgme0csrm7-3" x="0" y="0" stroke="#ffb616" transform="translate(1798.570556640625 1872.3104248046875)" style="animation-play-state:paused" ></use>
<path id="path20" d="M 1891.7050510406448 831.5637892341299
c 0 48.34561290543121 -11.829245710903379 13.886505834538752 -25.71575154544213 13.886505834538752
S 1840.2735479497605 879.909402139561 1840.2735479497605 831.5637892341299
s 11.829245710903379 -13.886505834538752 25.71575154544213 -13.886505834538752
S 1891.7050510406448 783.2181763286987 1891.7050510406448 831.5637892341299
z" fill="none" stroke="none" style="animation-play-state:paused" ></path>


<use xlink:href="#path-8jgme0csrm7-3" x="0" y="0" stroke="#ffb235" transform="translate(1845.1766357421875 857.3162231445312)" style="animation-play-state:paused" ></use>
<path id="path21" d="M 1955.699610223296 909.7846527479486
c 0 57.83183242809556 -14.15034197708721 16.61127101658064 -30.76161299366785 16.61127101658064
S 1894.1763842359605 967.6164851760442 1894.1763842359605 909.7846527479486
s 14.15034197708721 -16.61127101658064 30.76161299366785 -16.61127101658064
S 1955.699610223296 851.952820319853 1955.699610223296 909.7846527479486
z" fill="none" stroke="none" style="animation-play-state:paused" ></path>


<use xlink:href="#path-8jgme0csrm7-2" x="0" y="0" stroke="#4ebaff" transform="translate(1955.6827392578125 913.0621948242188)" style="animation-play-state:paused" ></use>
<path id="path22" d="M 2081.826437617819 548.5465224913955
c 0 65.11989443557025 -15.933591191682082 18.704650529365924 -34.638241721048004 18.704650529365924
S 2012.549954175723 613.6664169269658 2012.549954175723 548.5465224913955
s 15.933591191682082 -18.704650529365924 34.638241721048004 -18.704650529365924
S 2081.826437617819 483.4266280558253 2081.826437617819 548.5465224913955
z" fill="none" stroke="none" style="animation-play-state:paused" ></path>


<use xlink:href="#path-8jgme0csrm7-3" x="0" y="0" stroke="#ffb235" transform="translate(2078.991455078125 579.0809936523438)" style="animation-play-state:paused" ></use>
<path id="path23" d="M 2178.590953616498 195.13748557729707
c 0 59.07133070837621 -14.453623471198432 16.96729711836338 -31.42092058956181 16.96729711836338
S 2115.7491124373746 254.20881628567327 2115.7491124373746 195.13748557729707
s 14.453623471198432 -16.96729711836338 31.42092058956181 -16.96729711836338
S 2178.590953616498 136.06615486892088 2178.590953616498 195.13748557729707
z" fill="none" stroke="none" style="animation-play-state:paused" ></path>


<use xlink:href="#path-8jgme0csrm7-2" x="0" y="0" stroke="#ffb235" transform="translate(2178.322509765625 207.37966918945312)" style="animation-play-state:paused" ></use>
<path id="path24" d="M 2255.425751570987 59.67991056392865
c 0 26.833363688547017 -6.56561026421895 7.707455527561378 -14.27306579178033 7.707455527561378
S 2226.879619987426 86.51327425247567 2226.879619987426 59.67991056392865
s 6.56561026421895 -7.707455527561378 14.27306579178033 -7.707455527561378
S 2255.425751570987 32.846546875381634 2255.425751570987 59.67991056392865
z" fill="none" stroke="none" style="animation-play-state:paused" ></path>


<use xlink:href="#path-8jgme0csrm7-3" x="0" y="0" stroke="#4ebaff" transform="translate(2246.700927734375 70.01081085205078)" style="animation-play-state:paused" ></use></g></svg>