<?xml version="1.0" encoding="utf-8"?><svg xmlns="http://www.w3.org/2000/svg" xmlns:xlink="http://www.w3.org/1999/xlink" width="2266" height="1509" preserveAspectRatio="xMidYMid" viewBox="0 0 2266 1509" style="z-index:1;margin-right:-1.992px;display:block;background-repeat-y:initial;background-repeat-x:initial;background-color:rgb(241, 242, 243);animation-play-state:paused" ><g transform="translate(1133,754.5) scale(1,1) translate(-1133,-754.5)" style="transform:matrix(1, 0, 0, 1, 0, 0);animation-play-state:paused" ><defs style="animation-play-state:paused" ><filter id="blur-4er4rsv8oo3-1" x="-1" y="-1" width="3" height="3" style="animation-play-state:paused" ><feGaussianBlur stdDeviation="3" style="animation-play-state:paused" ></feGaussianBlur></filter>
<filter id="blur-4er4rsv8oo3-2" x="-1" y="-1" width="3" height="3" style="animation-play-state:paused" ><feGaussianBlur stdDeviation="1.5" style="animation-play-state:paused" ></feGaussianBlur></filter>
<filter id="blur-4er4rsv8oo3-3" x="-1" y="-1" width="3" height="3" style="animation-play-state:paused" ><feGaussianBlur stdDeviation="1" style="animation-play-state:paused" ></feGaussianBlur></filter></defs>
<circle cx="58.77129152049599" cy="0" transform="matrix(1,0,0,1,0,580.8090209960938)" r="15.597174747061086" fill="#42c9a0" opacity="0.7200000000000001" style="transform:matrix(1, 0, 0, 1, 0, 580.809);opacity:0.72;animation-play-state:paused" ></circle>
<circle cx="1517.3402917582239" cy="0" transform="matrix(1,0,0,1,0,435.857666015625)" r="7.360368426516869" fill="#5995fd" opacity="0.36000000000000004" style="transform:matrix(1, 0, 0, 1, 0, 435.858);opacity:0.36;animation-play-state:paused" ></circle>
<circle cx="1290.0353278993914" cy="0" transform="matrix(1,0,0,1,0,690.6514892578125)" r="4.225444110916924" fill="#42c9a0" opacity="0.36000000000000004" style="transform:matrix(1, 0, 0, 1, 0, 690.652);opacity:0.36;animation-play-state:paused" ></circle>
<circle cx="18.29598417414296" cy="0" transform="matrix(1,0,0,1,0,668.3614501953125)" r="15.02356391423861" fill="#5995fd" opacity="0.7200000000000001" style="transform:matrix(1, 0, 0, 1, 0, 668.361);opacity:0.72;animation-play-state:paused" ></circle>
<circle cx="1168.6669718122837" cy="0" transform="matrix(1,0,0,1,0,767.9451904296875)" r="5.963151425923033" fill="#5995fd" opacity="0.36000000000000004" style="transform:matrix(1, 0, 0, 1, 0, 767.945);opacity:0.36;animation-play-state:paused" ></circle>
<circle cx="311.13853711047676" cy="0" transform="matrix(1,0,0,1,0,1139.5767822265625)" r="8.137720846786184" fill="#42c9a0" opacity="0.63" style="transform:matrix(1, 0, 0, 1, 0, 1139.58);opacity:0.63;animation-play-state:paused" ></circle>
<circle cx="1708.670801043499" cy="0" transform="matrix(1,0,0,1,0,205.8970947265625)" r="15.1520241752633" fill="#5995fd" opacity="0.7200000000000001" style="transform:matrix(1, 0, 0, 1, 0, 205.897);opacity:0.72;animation-play-state:paused" ></circle>
<circle cx="1916.6678205393891" cy="0" transform="matrix(1,0,0,1,0,284.6744384765625)" r="13.41089270921939" fill="#5995fd" opacity="0.7200000000000001" style="transform:matrix(1, 0, 0, 1, 0, 284.674);opacity:0.72;animation-play-state:paused" ></circle>
<circle cx="176.36447136497165" cy="0" transform="matrix(1,0,0,1,0,458.0205078125)" r="11.76655932392789" fill="#42c9a0" opacity="0.63" style="transform:matrix(1, 0, 0, 1, 0, 458.021);opacity:0.63;animation-play-state:paused" ></circle>
<circle cx="514.3471549625285" cy="0" transform="matrix(1,0,0,1,0,1206.6546630859375)" r="11.32987770893669" fill="#5995fd" opacity="0.63" style="transform:matrix(1, 0, 0, 1, 0, 1206.65);opacity:0.63;animation-play-state:paused" ></circle>
<circle cx="1940.7327681737265" cy="0" transform="matrix(1,0,0,1,0,759.574951171875)" r="4.926798312096532" fill="#42c9a0" opacity="0.36000000000000004" style="transform:matrix(1, 0, 0, 1, 0, 759.575);opacity:0.36;animation-play-state:paused" ></circle>
<circle cx="2117.506321564121" cy="0" transform="matrix(1,0,0,1,0,1306.41064453125)" r="4.253074099612815" fill="#5995fd" opacity="0.36000000000000004" style="transform:matrix(1, 0, 0, 1, 0, 1306.41);opacity:0.36;animation-play-state:paused" ></circle>
<circle cx="548.7571750904459" cy="0" transform="matrix(1,0,0,1,0,954.0208129882812)" r="10.588818062381172" fill="#ff9900" opacity="0.63" style="transform:matrix(1, 0, 0, 1, 0, 954.021);opacity:0.63;animation-play-state:paused" ></circle>
<circle cx="1167.0287208931175" cy="0" transform="matrix(1,0,0,1,0,995.039794921875)" r="6.243574281467668" fill="#ff9900" opacity="0.36000000000000004" style="transform:matrix(1, 0, 0, 1, 0, 995.04);opacity:0.36;animation-play-state:paused" ></circle>
<circle cx="360.3450756592427" cy="0" transform="matrix(1,0,0,1,0,776.2760009765625)" r="14.760373748190327" fill="#ff9900" opacity="0.7200000000000001" style="transform:matrix(1, 0, 0, 1, 0, 776.276);opacity:0.72;animation-play-state:paused" ></circle>
<circle cx="1543.1327575004557" cy="0" transform="matrix(1,0,0,1,0,701.2276000976562)" r="8.578949009014806" fill="#5995fd" opacity="0.63" style="transform:matrix(1, 0, 0, 1, 0, 701.228);opacity:0.63;animation-play-state:paused" ></circle>
<circle cx="1587.976612071251" cy="0" transform="matrix(1,0,0,1,0,297.90380859375)" r="13.305807755538243" fill="#5995fd" opacity="0.7200000000000001" style="transform:matrix(1, 0, 0, 1, 0, 297.904);opacity:0.72;animation-play-state:paused" ></circle>
<circle cx="335.36263700073926" cy="0" transform="matrix(1,0,0,1,0,667.4658813476562)" r="15.540884547300795" fill="#5995fd" opacity="0.7200000000000001" style="transform:matrix(1, 0, 0, 1, 0, 667.466);opacity:0.72;animation-play-state:paused" ></circle>
<circle cx="1188.2900544346871" cy="0" transform="matrix(1,0,0,1,0,519.9584350585938)" r="9.494893882292217" fill="#42c9a0" opacity="0.63" style="transform:matrix(1, 0, 0, 1, 0, 519.958);opacity:0.63;animation-play-state:paused" ></circle>
<circle cx="1914.0218139746555" cy="0" transform="matrix(1,0,0,1,0,262.3968505859375)" r="6.181878703189973" fill="#5995fd" opacity="0.36000000000000004" style="transform:matrix(1, 0, 0, 1, 0, 262.397);opacity:0.36;animation-play-state:paused" ></circle>
<circle cx="108.4681734556134" cy="0" transform="matrix(1,0,0,1,0,433.722900390625)" r="9.509515514817167" fill="#42c9a0" opacity="0.63" style="transform:matrix(1, 0, 0, 1, 0, 433.723);opacity:0.63;animation-play-state:paused" ></circle>
<circle cx="218.69974256201508" cy="0" transform="matrix(1,0,0,1,0,26.125)" r="11.290572766731726" fill="#ff9900" opacity="0.63" style="transform:matrix(1, 0, 0, 1, 0, 26.125);opacity:0.63;animation-play-state:paused" ></circle>
<circle cx="878.8400723057371" cy="0" transform="matrix(1,0,0,1,0,467.9520263671875)" r="8.858744626905121" fill="#5995fd" opacity="0.63" style="transform:matrix(1, 0, 0, 1, 0, 467.952);opacity:0.63;animation-play-state:paused" ></circle>
<circle cx="778.5492950026243" cy="0" transform="matrix(1,0,0,1,0,447.7734375)" r="8.657816848546442" fill="#5995fd" opacity="0.63" style="transform:matrix(1, 0, 0, 1, 0, 447.773);opacity:0.63;animation-play-state:paused" ></circle>
<circle cx="1654.522317764251" cy="0" transform="matrix(1,0,0,1,0,934.238525390625)" r="6.443555570651983" fill="#5995fd" opacity="0.36000000000000004" style="transform:matrix(1, 0, 0, 1, 0, 934.238);opacity:0.36;animation-play-state:paused" ></circle>
<circle cx="1878.5190792045069" cy="0" transform="matrix(1,0,0,1,0,135.420654296875)" r="8.519637257141765" fill="#ff9900" opacity="0.63" style="transform:matrix(1, 0, 0, 1, 0, 135.421);opacity:0.63;animation-play-state:paused" ></circle>
<circle cx="307.2926891642295" cy="0" transform="matrix(1,0,0,1,0,1337.8262939453125)" r="10.375219898525772" fill="#5995fd" opacity="0.63" style="transform:matrix(1, 0, 0, 1, 0, 1337.83);opacity:0.63;animation-play-state:paused" ></circle>
<circle cx="806.4337286404759" cy="0" transform="matrix(1,0,0,1,0,687.2793579101562)" r="13.573877609189132" fill="#42c9a0" opacity="0.7200000000000001" style="transform:matrix(1, 0, 0, 1, 0, 687.279);opacity:0.72;animation-play-state:paused" ></circle>
<circle cx="1816.9049616336515" cy="0" transform="matrix(1,0,0,1,0,16.968994140625)" r="4.875753751161705" fill="#42c9a0" opacity="0.36000000000000004" style="transform:matrix(1, 0, 0, 1, 0, 16.969);opacity:0.36;animation-play-state:paused" ></circle>
<circle cx="1118.7606708817739" cy="0" transform="matrix(1,0,0,1,0,749.2984619140625)" r="15.557268712078494" fill="#ff9900" opacity="0.7200000000000001" style="transform:matrix(1, 0, 0, 1, 0, 749.298);opacity:0.72;animation-play-state:paused" ></circle>
<circle cx="1691.7898871879606" cy="0" transform="matrix(1,0,0,1,0,205.6646728515625)" r="9.274875414470873" fill="#42c9a0" opacity="0.63" style="transform:matrix(1, 0, 0, 1, 0, 205.665);opacity:0.63;animation-play-state:paused" ></circle>
<circle cx="960.418945627439" cy="0" transform="matrix(1,0,0,1,0,1281.6934814453125)" r="9.745702497764725" fill="#ff9900" opacity="0.63" style="transform:matrix(1, 0, 0, 1, 0, 1281.69);opacity:0.63;animation-play-state:paused" ></circle>
<circle cx="1359.860678923" cy="0" transform="matrix(1,0,0,1,0,772.1854248046875)" r="13.796122076920453" fill="#ff9900" opacity="0.7200000000000001" style="transform:matrix(1, 0, 0, 1, 0, 772.185);opacity:0.72;animation-play-state:paused" ></circle>
<circle cx="211.15849698113732" cy="0" transform="matrix(1,0,0,1,0,71.597900390625)" r="15.543709810829869" fill="#ff9900" opacity="0.7200000000000001" style="transform:matrix(1, 0, 0, 1, 0, 71.5979);opacity:0.72;animation-play-state:paused" ></circle>
<circle cx="1888.6779790330322" cy="0" transform="matrix(1,0,0,1,0,235.23095703125)" r="9.022958238887782" fill="#5995fd" opacity="0.63" style="transform:matrix(1, 0, 0, 1, 0, 235.231);opacity:0.63;animation-play-state:paused" ></circle>
<circle cx="645.2091988340326" cy="0" transform="matrix(1,0,0,1,0,402.796142578125)" r="6.161463536125095" fill="#5995fd" opacity="0.36000000000000004" style="transform:matrix(1, 0, 0, 1, 0, 402.796);opacity:0.36;animation-play-state:paused" ></circle>
<circle cx="1083.3286701255283" cy="0" transform="matrix(1,0,0,1,0,1145.080810546875)" r="12.052544956047605" fill="#42c9a0" opacity="0.7200000000000001" style="transform:matrix(1, 0, 0, 1, 0, 1145.08);opacity:0.72;animation-play-state:paused" ></circle>
<circle cx="43.6843149365624" cy="0" transform="matrix(1,0,0,1,0,1512.357177734375)" r="6.81495661101637" fill="#5995fd" opacity="0.36000000000000004" style="transform:matrix(1, 0, 0, 1, 0, 1512.36);opacity:0.36;animation-play-state:paused" ></circle>
<circle cx="1545.3558506953607" cy="0" transform="matrix(1,0,0,1,0,832.4935302734375)" r="10.301522930110377" fill="#42c9a0" opacity="0.63" style="transform:matrix(1, 0, 0, 1, 0, 832.493);opacity:0.63;animation-play-state:paused" ></circle>
<circle cx="1705.4823272112658" cy="0" transform="matrix(1,0,0,1,0,541.1796875)" r="9.393926585996407" fill="#42c9a0" opacity="0.63" style="transform:matrix(1, 0, 0, 1, 0, 541.18);opacity:0.63;animation-play-state:paused" ></circle>
<circle cx="1035.7569554767865" cy="0" transform="matrix(1,0,0,1,0,303.61767578125)" r="10.198357859081124" fill="#42c9a0" opacity="0.63" style="transform:matrix(1, 0, 0, 1, 0, 303.618);opacity:0.63;animation-play-state:paused" ></circle>
<circle cx="167.19621817959677" cy="0" transform="matrix(1,0,0,1,0,1028.998291015625)" r="10.0199947673363" fill="#5995fd" opacity="0.63" style="transform:matrix(1, 0, 0, 1, 0, 1029);opacity:0.63;animation-play-state:paused" ></circle></g></svg>